<svg version="1.1" id="Слой_1" xmlns="http://www.w3.org/2000/svg" xmlns:xlink="http://www.w3.org/1999/xlink" x="0px" y="0px" viewBox="0 0 128 128" enable-background="new 0 0 128 128" xml:space="preserve">
<g>
	<g>
		<g>
			<g>
				<path fill="#F7F7FB" d="M114.4,96.1H13.6C11.1,96.1,9,94,9,91.5V16.2c0-2.5,2.1-4.6,4.6-4.6h100.8c2.5,0,4.6,2.1,4.6,4.6v75.3
					C119,94,116.9,96.1,114.4,96.1z"></path>
			</g>
		</g>
		<g>
			<g>
				<path fill="#A8B2C6" d="M37.1,108.9h0.7c7,0,12.7-5.7,12.7-12.7h4.6h6.4h11.9H78c0,7,5.7,12.7,12.7,12.7h0.7H37.1z"></path>
			</g>
			<g>
				<path fill="#464C55" d="M91.4,111.9H37.1c-1.7,0-3-1.3-3-3s1.3-3,3-3h54.3c1.7,0,3,1.3,3,3S93.1,111.9,91.4,111.9z"></path>
			</g>
		</g>
		<g>
			<g>
				<g>
					<path fill="#A8B2C6" d="M114.4,96.1H13.6C11.1,96.1,9,94,9,91.5l0.2-14.8H119v14.8C119,94,116.9,96.1,114.4,96.1z"></path>
				</g>
			</g>
		</g>
		<g>
			<g>
				<path fill="#464C55" d="M114.4,99.1H13.6c-4.2,0-7.6-3.4-7.6-7.6V16.2c0-4.2,3.4-7.6,7.6-7.6h100.8c4.2,0,7.6,3.4,7.6,7.6v75.3
					C122,95.7,118.6,99.1,114.4,99.1z M13.6,14.6c-0.9,0-1.6,0.7-1.6,1.6v75.3c0,0.9,0.7,1.6,1.6,1.6h100.8c0.9,0,1.6-0.7,1.6-1.6
					V16.2c0-0.9-0.7-1.6-1.6-1.6H13.6z"></path>
			</g>
		</g>
	</g>
	<g>
		<g>
			<path fill="#FFFFFF" d="M64,90c-1.9,0-3.5-1.6-3.5-3.5S62.1,83,64,83s3.5,1.6,3.5,3.5S65.9,90,64,90z"></path>
		</g>
	</g>
</g>
</svg>
